<svg width="260" height="22" viewBox="0 0 260 22" fill="none" xmlns="http://www.w3.org/2000/svg">
<g clip-path="url(#clip0_13_88)">
<path d="M0 4.57693H1.94659L7.45537 17.6L12.9878 4.57693H14.8713L8.21194 19.8H6.65939L0 4.57693Z" fill="black"/>
<path d="M19.8521 4.57693H21.6016V19.6923H19.8521V4.57693Z" fill="black"/>
<path d="M26.8819 17.4923L27.9694 16.2385C29.585 17.6846 31.1297 18.3769 33.2812 18.3769C35.4327 18.3769 36.733 17.3 36.733 15.8077V15.7615C36.733 14.3615 35.9607 13.5769 32.7059 12.8923C29.1437 12.1385 27.5045 11.0154 27.5045 8.53077V8.48462C27.5045 6.13077 29.6481 4.36154 32.5955 4.36154C34.8731 4.36154 36.4493 4.98462 38.0413 6.21539L37.0246 7.53077C35.5903 6.38462 34.1481 5.89231 32.5561 5.89231C30.5229 5.89231 29.2619 6.95385 29.2619 8.33077V8.37693C29.2619 9.8 30.0342 10.6231 33.4624 11.3154C36.9143 12.0692 38.5062 13.2769 38.5062 15.5923V15.6385C38.5062 18.2308 36.2917 19.9154 33.2181 19.9154C30.7435 19.9154 28.7496 19.1385 26.8897 17.5L26.8819 17.4923Z" fill="black"/>
<path d="M43.9914 4.57693H45.741V19.6923H43.9914V4.57693Z" fill="black"/>
<path d="M51.3601 12.1769V12.1308C51.3601 7.96155 54.5676 4.3154 59.2804 4.3154C63.9932 4.3154 67.1614 7.92309 67.1614 12.0923V12.1385C67.1614 16.3077 63.9538 19.9539 59.241 19.9539C54.5282 19.9539 51.3601 16.3462 51.3601 12.1769ZM65.3409 12.1769V12.1308C65.3409 8.70001 62.7717 5.89232 59.2331 5.89232C55.6946 5.89232 53.1727 8.65386 53.1727 12.0923V12.1385C53.1727 15.5692 55.7419 18.3769 59.2804 18.3769C62.819 18.3769 65.3409 15.6154 65.3409 12.1769Z" fill="black"/>
<path d="M72.6228 4.57693H74.2621L84.0187 16.6923V4.57693H85.7209V19.6923H84.326L74.3251 7.29232V19.6923H72.6228V4.57693Z" fill="black"/>
<path d="M113.667 4.46924H116.811L123.447 19.6923H119.885L118.466 16.3H111.917L110.499 19.6923H107.023L113.659 4.46924H113.667ZM117.253 13.3692L115.196 8.46924L113.139 13.3692H117.253Z" fill="black"/>
<path d="M127.608 4.57693H130.753L138.011 13.8846V4.57693H141.376V19.6923H138.476L130.973 10.0846V19.6923H127.608V4.57693Z" fill="black"/>
<path d="M146.861 4.57693H152.906C157.776 4.57693 161.134 7.83847 161.134 12.0923V12.1385C161.134 16.3923 157.768 19.7 152.906 19.7H146.861V4.57693ZM150.266 7.57694V16.6923H152.898C155.664 16.6923 157.564 14.8539 157.564 12.1769V12.1308C157.564 9.45386 155.656 7.57694 152.898 7.57694H150.266Z" fill="black"/>
<path d="M170.134 4.46924H173.278L179.914 19.6923H176.352L174.933 16.3H168.384L166.966 19.6923H163.49L170.126 4.46924H170.134ZM173.72 13.3692L171.663 8.46924L169.606 13.3692H173.72Z" fill="black"/>
<path d="M184.075 4.57693H187.48V16.6692H195.203V19.6923H184.075V4.57693Z" fill="black"/>
<path d="M198.86 13.2154V4.57693H202.264V13.1308C202.264 15.6154 203.502 16.8692 205.606 16.8692C207.71 16.8692 208.947 15.6615 208.947 13.2385V4.57693H212.352V13.1077C212.352 17.6846 209.72 19.9308 205.558 19.9308C201.397 19.9308 198.852 17.6846 198.852 13.2154H198.86Z" fill="black"/>
<path d="M216.915 12.1769V12.1308C216.915 7.83078 220.233 4.3154 224.993 4.3154C227.893 4.3154 229.682 5.26925 231.101 6.64617L228.933 9.08463C227.72 8.02309 226.545 7.37694 224.969 7.37694C222.361 7.37694 220.477 9.49232 220.477 12.0846V12.1308C220.477 14.7231 222.313 16.8846 224.969 16.8846C226.742 16.8846 227.822 16.2154 229.044 15.1154L231.211 17.2539C229.619 18.9154 227.869 19.9539 224.859 19.9539C220.304 19.9539 216.915 16.5231 216.915 12.1769Z" fill="black"/>
<path d="M235.853 4.57692H239.257V19.6923H235.853V4.57692ZM238.887 0L241.787 1.23077L238.777 3.39231H236.207L238.887 0Z" fill="black"/>
<path d="M250.22 4.46924H253.364L260 19.6923H256.438L255.019 16.3H248.47L247.052 19.6923H243.576L250.212 4.46924H250.22ZM253.798 13.3692L251.741 8.46924L249.684 13.3692H253.798Z" fill="black"/>
<path d="M98.5748 1.96155H96.9986V22H98.5748V1.96155Z" fill="black"/>
<path d="M66.389 0.569244V2.13848H52.1718V0.569244H66.389Z" fill="black"/>
</g>
<defs>
<clipPath id="clip0_13_88">
<rect width="260" height="22" fill="white"/>
</clipPath>
</defs>
</svg>
